<svg width="1144" height="1016" viewBox="0 0 1144 1016" fill="none" xmlns="http://www.w3.org/2000/svg">
<path fill-rule="evenodd" clip-rule="evenodd" d="M350.146 201.151C349.552 200.614 349.552 199.742 350.146 199.204L569.646 0.403198C570.24 -0.134401 571.202 -0.134399 571.796 0.4032L791.297 199.204C791.89 199.742 791.89 200.614 791.297 201.151L571.796 399.952C571.202 400.49 570.24 400.49 569.646 399.952L350.146 201.151ZM525.78 508.635C525.483 508.366 525.483 507.93 525.78 507.661L570.883 466.812C571.179 466.543 571.661 466.543 571.957 466.812L617.06 507.661C617.356 507.93 617.356 508.366 617.06 508.635L571.957 549.484C571.661 549.753 571.179 549.753 570.883 549.484L525.78 508.635ZM702.024 507.875C701.431 508.412 701.431 509.284 702.024 509.822L921.525 708.623C922.118 709.16 923.081 709.16 923.674 708.623L1143.18 509.822C1143.77 509.284 1143.77 508.412 1143.18 507.875L923.674 309.074C923.081 308.536 922.118 308.536 921.525 309.074L702.024 507.875ZM0.44518 509.474C-0.148395 508.937 -0.148393 508.065 0.445182 507.528L219.946 308.726C220.54 308.189 221.502 308.189 222.095 308.726L441.596 507.528C442.19 508.065 442.19 508.937 441.596 509.474L222.095 708.276C221.502 708.813 220.54 708.813 219.946 708.276L0.44518 509.474ZM350.146 814.347C349.552 814.885 349.552 815.756 350.146 816.294L569.646 1015.1C570.24 1015.63 571.202 1015.63 571.796 1015.1L791.297 816.294C791.89 815.756 791.89 814.885 791.297 814.347L571.796 615.546C571.202 615.008 570.24 615.008 569.646 615.546L350.146 814.347Z" fill="white" fill-opacity="0.4"/>
</svg>
