<svg width="40" height="39" viewBox="0 0 40 39" fill="none" xmlns="http://www.w3.org/2000/svg">
<rect width="39.9848" height="38.9109" rx="8.36923" fill="#2196F3"/>
<path fill-rule="evenodd" clip-rule="evenodd" d="M14.6842 10.9433C14.1139 10.3811 14.1139 9.46954 14.6842 8.90733L18.9288 4.72305C19.4991 4.16084 20.4237 4.16084 20.9941 4.72305L25.2386 8.90733C25.8089 9.46954 25.8089 10.3811 25.2386 10.9433L20.9941 15.1276C20.4237 15.6898 19.4991 15.6898 18.9288 15.1276L14.6842 10.9433ZM19.1831 19.977C18.898 19.6959 18.898 19.2401 19.1831 18.959L19.4651 18.6811C19.7502 18.4 20.2125 18.4 20.4977 18.6811L20.7796 18.959C21.0648 19.2401 21.0648 19.6959 20.7796 19.977L20.4977 20.2549C20.2125 20.536 19.7502 20.536 19.4651 20.2549L19.1831 19.977ZM24.7013 18.4716C24.131 19.0338 24.131 19.9453 24.7013 20.5075L28.9459 24.6918C29.5162 25.254 30.4409 25.254 31.0112 24.6918L35.2557 20.5075C35.8261 19.9453 35.8261 19.0338 35.2557 18.4716L31.0112 14.2873C30.4409 13.7251 29.5162 13.7251 28.9459 14.2873L24.7013 18.4716ZM4.72907 20.4968C4.15876 19.9346 4.15876 19.023 4.72907 18.4608L8.97364 14.2765C9.54396 13.7143 10.4686 13.7143 11.0389 14.2765L15.2835 18.4608C15.8538 19.023 15.8538 19.9346 15.2835 20.4968L11.0389 24.6811C10.4686 25.2433 9.54395 25.2433 8.97364 24.6811L4.72907 20.4968ZM14.6842 27.9678C14.1139 28.53 14.1139 29.4415 14.6842 30.0037L18.9288 34.188C19.4991 34.7502 20.4237 34.7502 20.9941 34.188L25.2386 30.0037C25.8089 29.4415 25.8089 28.53 25.2386 27.9678L20.9941 23.7835C20.4237 23.2213 19.4991 23.2213 18.9288 23.7835L14.6842 27.9678Z" fill="white"/>
</svg>
